<svg width="30" height="31" viewBox="0 0 30 31" fill="none" xmlns="http://www.w3.org/2000/svg">
<path d="M28.125 22.9829C28.125 23.4802 27.9275 23.9571 27.5758 24.3087C27.2242 24.6604 26.7473 24.8579 26.25 24.8579H3.75C3.25272 24.8579 2.77581 24.6604 2.42417 24.3087C2.07254 23.9571 1.875 23.4802 1.875 22.9829V11.7329C1.875 11.2356 2.07254 10.7587 2.42417 10.4071C2.77581 10.0555 3.25272 9.85791 3.75 9.85791H5.9475C7.43857 9.85709 8.86831 9.26429 9.9225 8.20978L11.4788 6.65729C11.8294 6.30655 12.3047 6.10901 12.8006 6.10791H17.1956C17.6929 6.10802 18.1697 6.30563 18.5212 6.65729L20.0738 8.20978C20.5962 8.73237 21.2165 9.14691 21.8992 9.4297C22.5818 9.71249 23.3136 9.858 24.0525 9.85791H26.25C26.7473 9.85791 27.2242 10.0555 27.5758 10.4071C27.9275 10.7587 28.125 11.2356 28.125 11.7329V22.9829ZM3.75 7.98291C2.75544 7.98291 1.80161 8.378 1.09835 9.08126C0.395088 9.78452 0 10.7383 0 11.7329L0 22.9829C0 23.9775 0.395088 24.9313 1.09835 25.6346C1.80161 26.3378 2.75544 26.7329 3.75 26.7329H26.25C27.2446 26.7329 28.1984 26.3378 28.9016 25.6346C29.6049 24.9313 30 23.9775 30 22.9829V11.7329C30 10.7383 29.6049 9.78452 28.9016 9.08126C28.1984 8.378 27.2446 7.98291 26.25 7.98291H24.0525C23.058 7.9827 22.1043 7.58747 21.4012 6.88416L19.8488 5.33166C19.1457 4.62835 18.192 4.23312 17.1975 4.23291H12.8025C11.808 4.23312 10.8543 4.62835 10.1512 5.33166L8.59875 6.88416C7.89565 7.58747 6.94198 7.9827 5.9475 7.98291H3.75Z" fill="#2A3647"/>
<path d="M15 21.1079C13.7568 21.1079 12.5645 20.614 11.6854 19.735C10.8064 18.8559 10.3125 17.6636 10.3125 16.4204C10.3125 15.1772 10.8064 13.9849 11.6854 13.1058C12.5645 12.2268 13.7568 11.7329 15 11.7329C16.2432 11.7329 17.4355 12.2268 18.3146 13.1058C19.1936 13.9849 19.6875 15.1772 19.6875 16.4204C19.6875 17.6636 19.1936 18.8559 18.3146 19.735C17.4355 20.614 16.2432 21.1079 15 21.1079ZM15 22.9829C16.7405 22.9829 18.4097 22.2915 19.6404 21.0608C20.8711 19.8301 21.5625 18.1609 21.5625 16.4204C21.5625 14.6799 20.8711 13.0107 19.6404 11.78C18.4097 10.5493 16.7405 9.85791 15 9.85791C13.2595 9.85791 11.5903 10.5493 10.3596 11.78C9.1289 13.0107 8.4375 14.6799 8.4375 16.4204C8.4375 18.1609 9.1289 19.8301 10.3596 21.0608C11.5903 22.2915 13.2595 22.9829 15 22.9829ZM5.625 12.6704C5.625 12.9191 5.52623 13.1575 5.35041 13.3333C5.1746 13.5091 4.93614 13.6079 4.6875 13.6079C4.43886 13.6079 4.2004 13.5091 4.02459 13.3333C3.84877 13.1575 3.75 12.9191 3.75 12.6704C3.75 12.4218 3.84877 12.1833 4.02459 12.0075C4.2004 11.8317 4.43886 11.7329 4.6875 11.7329C4.93614 11.7329 5.1746 11.8317 5.35041 12.0075C5.52623 12.1833 5.625 12.4218 5.625 12.6704Z" fill="#2A3647"/>
</svg>
