<svg width="24" height="25" viewBox="0 0 24 25" fill="none" xmlns="http://www.w3.org/2000/svg">
<mask id="mask0_262603_5045" style="mask-type:alpha" maskUnits="userSpaceOnUse" x="0" y="0" width="24" height="25">
<rect x="6.10352e-05" y="0.5" width="24" height="24" fill="#D9D9D9"/>
</mask>
<g mask="url(#mask0_262603_5045)">
<path d="M7.00006 21.5C6.45006 21.5 5.97923 21.3042 5.58756 20.9125C5.19589 20.5208 5.00006 20.05 5.00006 19.5V6.5C4.71673 6.5 4.47923 6.40417 4.28756 6.2125C4.09589 6.02083 4.00006 5.78333 4.00006 5.5C4.00006 5.21667 4.09589 4.97917 4.28756 4.7875C4.47923 4.59583 4.71673 4.5 5.00006 4.5H9.00006C9.00006 4.21667 9.09589 3.97917 9.28756 3.7875C9.47923 3.59583 9.71673 3.5 10.0001 3.5H14.0001C14.2834 3.5 14.5209 3.59583 14.7126 3.7875C14.9042 3.97917 15.0001 4.21667 15.0001 4.5H19.0001C19.2834 4.5 19.5209 4.59583 19.7126 4.7875C19.9042 4.97917 20.0001 5.21667 20.0001 5.5C20.0001 5.78333 19.9042 6.02083 19.7126 6.2125C19.5209 6.40417 19.2834 6.5 19.0001 6.5V19.5C19.0001 20.05 18.8042 20.5208 18.4126 20.9125C18.0209 21.3042 17.5501 21.5 17.0001 21.5H7.00006ZM7.00006 6.5V19.5H17.0001V6.5H7.00006ZM9.00006 16.5C9.00006 16.7833 9.09589 17.0208 9.28756 17.2125C9.47923 17.4042 9.71673 17.5 10.0001 17.5C10.2834 17.5 10.5209 17.4042 10.7126 17.2125C10.9042 17.0208 11.0001 16.7833 11.0001 16.5V9.5C11.0001 9.21667 10.9042 8.97917 10.7126 8.7875C10.5209 8.59583 10.2834 8.5 10.0001 8.5C9.71673 8.5 9.47923 8.59583 9.28756 8.7875C9.09589 8.97917 9.00006 9.21667 9.00006 9.5V16.5ZM13.0001 16.5C13.0001 16.7833 13.0959 17.0208 13.2876 17.2125C13.4792 17.4042 13.7167 17.5 14.0001 17.5C14.2834 17.5 14.5209 17.4042 14.7126 17.2125C14.9042 17.0208 15.0001 16.7833 15.0001 16.5V9.5C15.0001 9.21667 14.9042 8.97917 14.7126 8.7875C14.5209 8.59583 14.2834 8.5 14.0001 8.5C13.7167 8.5 13.4792 8.59583 13.2876 8.7875C13.0959 8.97917 13.0001 9.21667 13.0001 9.5V16.5Z" fill="#2A3647"/>
</g>
</svg>
