<svg width="442" height="50" viewBox="0 0 442 50" fill="none" xmlns="http://www.w3.org/2000/svg">
<rect x="1.00006" y="1" width="440" height="48" rx="10" fill="#E7E7E7" fill-opacity="0.5"/>
<rect x="1.00006" y="1" width="440" height="48" rx="10" stroke="#A8A8A8" stroke-dasharray="2 4"/>
<path d="M134.133 25.6797C134.133 26.9661 133.898 28.0417 133.43 28.9062C132.961 29.7656 132.281 30.4141 131.391 30.8516C130.505 31.2839 129.43 31.5 128.164 31.5H125.063V20.0781H128.508C129.669 20.0781 130.669 20.2917 131.508 20.7188C132.346 21.1406 132.992 21.7682 133.445 22.6016C133.904 23.4297 134.133 24.4557 134.133 25.6797ZM132.734 25.7266C132.734 24.7005 132.563 23.8542 132.219 23.1875C131.88 22.5208 131.38 22.026 130.719 21.7031C130.063 21.375 129.258 21.2109 128.305 21.2109H126.391V30.3594H128.008C129.581 30.3594 130.76 29.9714 131.547 29.1953C132.339 28.4193 132.734 27.263 132.734 25.7266ZM140.367 22.7812C140.539 22.7812 140.719 22.7917 140.906 22.8125C141.094 22.8281 141.26 22.8516 141.406 22.8828L141.242 24.0859C141.102 24.0495 140.945 24.0208 140.773 24C140.602 23.9792 140.44 23.9688 140.289 23.9688C139.945 23.9688 139.62 24.0391 139.313 24.1797C139.01 24.3151 138.745 24.513 138.516 24.7734C138.287 25.0286 138.107 25.3385 137.977 25.7031C137.846 26.0625 137.781 26.4635 137.781 26.9062V31.5H136.477V22.9375H137.555L137.695 24.5156H137.75C137.927 24.1979 138.141 23.9089 138.391 23.6484C138.641 23.3828 138.93 23.1719 139.258 23.0156C139.591 22.8594 139.961 22.7812 140.367 22.7812ZM146.227 22.7969C147.247 22.7969 148.005 23.026 148.5 23.4844C148.995 23.9427 149.242 24.6745 149.242 25.6797V31.5H148.297L148.047 30.2344H147.984C147.745 30.5469 147.495 30.8099 147.234 31.0234C146.974 31.2318 146.672 31.3906 146.328 31.5C145.99 31.6042 145.573 31.6562 145.078 31.6562C144.557 31.6562 144.094 31.5651 143.688 31.3828C143.287 31.2005 142.969 30.9245 142.734 30.5547C142.505 30.1849 142.391 29.7161 142.391 29.1484C142.391 28.2943 142.729 27.638 143.406 27.1797C144.083 26.7214 145.115 26.4714 146.5 26.4297L147.977 26.3672V25.8438C147.977 25.1042 147.818 24.5859 147.5 24.2891C147.182 23.9922 146.734 23.8438 146.156 23.8438C145.708 23.8438 145.281 23.9089 144.875 24.0391C144.469 24.1693 144.083 24.3229 143.719 24.5L143.32 23.5156C143.706 23.3177 144.148 23.1484 144.648 23.0078C145.148 22.8672 145.675 22.7969 146.227 22.7969ZM147.961 27.2812L146.656 27.3359C145.589 27.3776 144.836 27.5521 144.398 27.8594C143.961 28.1667 143.742 28.6016 143.742 29.1641C143.742 29.6536 143.891 30.0156 144.188 30.25C144.484 30.4844 144.878 30.6016 145.367 30.6016C146.128 30.6016 146.75 30.3906 147.234 29.9688C147.719 29.5469 147.961 28.9141 147.961 28.0703V27.2812ZM154.305 35.3438C153.18 35.3438 152.313 35.1328 151.703 34.7109C151.094 34.2943 150.789 33.7083 150.789 32.9531C150.789 32.4167 150.958 31.9583 151.297 31.5781C151.641 31.1979 152.115 30.9453 152.719 30.8203C152.495 30.7161 152.302 30.5599 152.141 30.3516C151.984 30.1432 151.906 29.9036 151.906 29.6328C151.906 29.3203 151.992 29.0469 152.164 28.8125C152.341 28.5729 152.609 28.3438 152.969 28.125C152.521 27.9427 152.156 27.6354 151.875 27.2031C151.599 26.7656 151.461 26.2578 151.461 25.6797C151.461 25.0651 151.589 24.5417 151.844 24.1094C152.099 23.6719 152.469 23.3385 152.953 23.1094C153.438 22.8802 154.023 22.7656 154.711 22.7656C154.862 22.7656 155.013 22.7734 155.164 22.7891C155.32 22.7995 155.469 22.8177 155.609 22.8438C155.75 22.8646 155.872 22.8906 155.977 22.9219H158.914V23.7578L157.336 23.9531C157.492 24.1562 157.622 24.401 157.727 24.6875C157.831 24.974 157.883 25.2917 157.883 25.6406C157.883 26.4948 157.594 27.1745 157.016 27.6797C156.438 28.1797 155.643 28.4297 154.633 28.4297C154.393 28.4297 154.148 28.4089 153.898 28.3672C153.643 28.5078 153.448 28.6641 153.313 28.8359C153.182 29.0078 153.117 29.2057 153.117 29.4297C153.117 29.5964 153.167 29.7292 153.266 29.8281C153.37 29.9271 153.518 30 153.711 30.0469C153.904 30.0885 154.135 30.1094 154.406 30.1094H155.914C156.846 30.1094 157.56 30.3047 158.055 30.6953C158.555 31.0859 158.805 31.6562 158.805 32.4062C158.805 33.3542 158.419 34.0807 157.648 34.5859C156.878 35.0911 155.763 35.3438 154.305 35.3438ZM154.344 34.3281C155.052 34.3281 155.638 34.2552 156.102 34.1094C156.57 33.9688 156.919 33.763 157.148 33.4922C157.383 33.2266 157.5 32.9089 157.5 32.5391C157.5 32.1953 157.422 31.9349 157.266 31.7578C157.109 31.5859 156.88 31.4714 156.578 31.4141C156.276 31.3516 155.906 31.3203 155.469 31.3203H153.984C153.599 31.3203 153.263 31.3802 152.977 31.5C152.69 31.6198 152.469 31.7969 152.313 32.0312C152.162 32.2656 152.086 32.5573 152.086 32.9062C152.086 33.3698 152.281 33.7214 152.672 33.9609C153.063 34.2057 153.62 34.3281 154.344 34.3281ZM154.68 27.4844C155.3 27.4844 155.766 27.3281 156.078 27.0156C156.391 26.7031 156.547 26.2474 156.547 25.6484C156.547 25.0078 156.388 24.5286 156.07 24.2109C155.753 23.888 155.284 23.7266 154.664 23.7266C154.07 23.7266 153.612 23.8932 153.289 24.2266C152.971 24.5547 152.813 25.0365 152.813 25.6719C152.813 26.2552 152.974 26.7031 153.297 27.0156C153.62 27.3281 154.081 27.4844 154.68 27.4844ZM167.961 22.7969C168.982 22.7969 169.74 23.026 170.234 23.4844C170.729 23.9427 170.977 24.6745 170.977 25.6797V31.5H170.031L169.781 30.2344H169.719C169.479 30.5469 169.229 30.8099 168.969 31.0234C168.708 31.2318 168.406 31.3906 168.063 31.5C167.724 31.6042 167.307 31.6562 166.813 31.6562C166.292 31.6562 165.828 31.5651 165.422 31.3828C165.021 31.2005 164.703 30.9245 164.469 30.5547C164.24 30.1849 164.125 29.7161 164.125 29.1484C164.125 28.2943 164.464 27.638 165.141 27.1797C165.818 26.7214 166.849 26.4714 168.234 26.4297L169.711 26.3672V25.8438C169.711 25.1042 169.552 24.5859 169.234 24.2891C168.917 23.9922 168.469 23.8438 167.891 23.8438C167.443 23.8438 167.016 23.9089 166.609 24.0391C166.203 24.1693 165.818 24.3229 165.453 24.5L165.055 23.5156C165.44 23.3177 165.883 23.1484 166.383 23.0078C166.883 22.8672 167.409 22.7969 167.961 22.7969ZM169.695 27.2812L168.391 27.3359C167.323 27.3776 166.57 27.5521 166.133 27.8594C165.695 28.1667 165.477 28.6016 165.477 29.1641C165.477 29.6536 165.625 30.0156 165.922 30.25C166.219 30.4844 166.612 30.6016 167.102 30.6016C167.862 30.6016 168.484 30.3906 168.969 29.9688C169.453 29.5469 169.695 28.9141 169.695 28.0703V27.2812ZM181.617 23.9531H179.484V31.5H178.188V23.9531H176.672V23.3281L178.188 22.8984V22.3281C178.188 21.6094 178.294 21.026 178.508 20.5781C178.721 20.125 179.031 19.7917 179.438 19.5781C179.844 19.3646 180.339 19.2578 180.922 19.2578C181.25 19.2578 181.55 19.2865 181.82 19.3438C182.096 19.401 182.339 19.4661 182.547 19.5391L182.211 20.5625C182.034 20.5052 181.833 20.4531 181.609 20.4062C181.391 20.3542 181.167 20.3281 180.938 20.3281C180.443 20.3281 180.076 20.4896 179.836 20.8125C179.602 21.1302 179.484 21.6302 179.484 22.3125V22.9375H181.617V23.9531ZM184.484 22.9375V31.5H183.188V22.9375H184.484ZM183.852 19.7344C184.065 19.7344 184.247 19.8047 184.398 19.9453C184.555 20.0807 184.633 20.2943 184.633 20.5859C184.633 20.8724 184.555 21.0859 184.398 21.2266C184.247 21.3672 184.065 21.4375 183.852 21.4375C183.628 21.4375 183.44 21.3672 183.289 21.2266C183.143 21.0859 183.07 20.8724 183.07 20.5859C183.07 20.2943 183.143 20.0807 183.289 19.9453C183.44 19.8047 183.628 19.7344 183.852 19.7344ZM188.531 31.5H187.227V19.3438H188.531V31.5ZM194.57 22.7812C195.3 22.7812 195.925 22.9427 196.445 23.2656C196.966 23.5885 197.365 24.0417 197.641 24.625C197.917 25.2031 198.055 25.8802 198.055 26.6562V27.4609H192.141C192.156 28.4661 192.406 29.2318 192.891 29.7578C193.375 30.2839 194.057 30.5469 194.938 30.5469C195.479 30.5469 195.958 30.4974 196.375 30.3984C196.792 30.2995 197.224 30.1536 197.672 29.9609V31.1016C197.24 31.2943 196.81 31.4349 196.383 31.5234C195.961 31.612 195.461 31.6562 194.883 31.6562C194.06 31.6562 193.341 31.4896 192.727 31.1562C192.117 30.8177 191.643 30.3229 191.305 29.6719C190.966 29.0208 190.797 28.224 190.797 27.2812C190.797 26.3594 190.951 25.5625 191.258 24.8906C191.57 24.2135 192.008 23.6927 192.57 23.3281C193.138 22.9635 193.805 22.7812 194.57 22.7812ZM194.555 23.8438C193.862 23.8438 193.31 24.0703 192.898 24.5234C192.487 24.9766 192.242 25.6094 192.164 26.4219H196.695C196.69 25.9115 196.609 25.4635 196.453 25.0781C196.302 24.6875 196.07 24.3854 195.758 24.1719C195.445 23.9531 195.044 23.8438 194.555 23.8438ZM211.797 27.2031C211.797 27.9062 211.706 28.5339 211.523 29.0859C211.341 29.638 211.078 30.1042 210.734 30.4844C210.391 30.8646 209.974 31.1562 209.484 31.3594C209 31.5573 208.451 31.6562 207.836 31.6562C207.263 31.6562 206.737 31.5573 206.258 31.3594C205.784 31.1562 205.372 30.8646 205.023 30.4844C204.68 30.1042 204.412 29.638 204.219 29.0859C204.031 28.5339 203.938 27.9062 203.938 27.2031C203.938 26.2656 204.096 25.4688 204.414 24.8125C204.732 24.151 205.185 23.6484 205.773 23.3047C206.367 22.9557 207.073 22.7812 207.891 22.7812C208.672 22.7812 209.354 22.9557 209.938 23.3047C210.526 23.6536 210.982 24.1589 211.305 24.8203C211.633 25.4766 211.797 26.2708 211.797 27.2031ZM205.281 27.2031C205.281 27.8906 205.372 28.487 205.555 28.9922C205.737 29.4974 206.018 29.888 206.398 30.1641C206.779 30.4401 207.268 30.5781 207.867 30.5781C208.461 30.5781 208.948 30.4401 209.328 30.1641C209.714 29.888 209.997 29.4974 210.18 28.9922C210.362 28.487 210.453 27.8906 210.453 27.2031C210.453 26.5208 210.362 25.9323 210.18 25.4375C209.997 24.9375 209.716 24.5521 209.336 24.2812C208.956 24.0104 208.464 23.875 207.859 23.875C206.969 23.875 206.315 24.1693 205.898 24.7578C205.487 25.3464 205.281 26.1615 205.281 27.2031ZM217.93 22.7812C218.102 22.7812 218.281 22.7917 218.469 22.8125C218.656 22.8281 218.823 22.8516 218.969 22.8828L218.805 24.0859C218.664 24.0495 218.508 24.0208 218.336 24C218.164 23.9792 218.003 23.9688 217.852 23.9688C217.508 23.9688 217.182 24.0391 216.875 24.1797C216.573 24.3151 216.307 24.513 216.078 24.7734C215.849 25.0286 215.669 25.3385 215.539 25.7031C215.409 26.0625 215.344 26.4635 215.344 26.9062V31.5H214.039V22.9375H215.117L215.258 24.5156H215.313C215.49 24.1979 215.703 23.9089 215.953 23.6484C216.203 23.3828 216.492 23.1719 216.82 23.0156C217.154 22.8594 217.523 22.7812 217.93 22.7812ZM226.039 19.3438V22.3828C226.039 22.7318 226.029 23.0703 226.008 23.3984C225.992 23.7266 225.979 23.9818 225.969 24.1641H226.039C226.273 23.7786 226.612 23.4531 227.055 23.1875C227.497 22.9219 228.063 22.7891 228.75 22.7891C229.823 22.7891 230.677 23.1615 231.313 23.9062C231.953 24.6458 232.273 25.7474 232.273 27.2109C232.273 28.1745 232.128 28.987 231.836 29.6484C231.544 30.3099 231.133 30.8099 230.602 31.1484C230.07 31.487 229.443 31.6562 228.719 31.6562C228.042 31.6562 227.484 31.5312 227.047 31.2812C226.615 31.026 226.281 30.7161 226.047 30.3516H225.945L225.68 31.5H224.742V19.3438H226.039ZM228.539 23.875C227.919 23.875 227.427 23.9974 227.063 24.2422C226.698 24.4818 226.435 24.8464 226.273 25.3359C226.117 25.8203 226.039 26.4349 226.039 27.1797V27.25C226.039 28.3281 226.219 29.1536 226.578 29.7266C226.938 30.2943 227.591 30.5781 228.539 30.5781C229.336 30.5781 229.932 30.2865 230.328 29.7031C230.729 29.1198 230.93 28.2865 230.93 27.2031C230.93 26.099 230.732 25.2682 230.336 24.7109C229.945 24.1536 229.346 23.875 228.539 23.875ZM238.43 22.7812C238.602 22.7812 238.781 22.7917 238.969 22.8125C239.156 22.8281 239.323 22.8516 239.469 22.8828L239.305 24.0859C239.164 24.0495 239.008 24.0208 238.836 24C238.664 23.9792 238.503 23.9688 238.352 23.9688C238.008 23.9688 237.682 24.0391 237.375 24.1797C237.073 24.3151 236.807 24.513 236.578 24.7734C236.349 25.0286 236.169 25.3385 236.039 25.7031C235.909 26.0625 235.844 26.4635 235.844 26.9062V31.5H234.539V22.9375H235.617L235.758 24.5156H235.813C235.99 24.1979 236.203 23.9089 236.453 23.6484C236.703 23.3828 236.992 23.1719 237.32 23.0156C237.654 22.8594 238.023 22.7812 238.43 22.7812ZM248.469 27.2031C248.469 27.9062 248.378 28.5339 248.195 29.0859C248.013 29.638 247.75 30.1042 247.406 30.4844C247.063 30.8646 246.646 31.1562 246.156 31.3594C245.672 31.5573 245.122 31.6562 244.508 31.6562C243.935 31.6562 243.409 31.5573 242.93 31.3594C242.456 31.1562 242.044 30.8646 241.695 30.4844C241.352 30.1042 241.083 29.638 240.891 29.0859C240.703 28.5339 240.609 27.9062 240.609 27.2031C240.609 26.2656 240.768 25.4688 241.086 24.8125C241.404 24.151 241.857 23.6484 242.445 23.3047C243.039 22.9557 243.745 22.7812 244.563 22.7812C245.344 22.7812 246.026 22.9557 246.609 23.3047C247.198 23.6536 247.654 24.1589 247.977 24.8203C248.305 25.4766 248.469 26.2708 248.469 27.2031ZM241.953 27.2031C241.953 27.8906 242.044 28.487 242.227 28.9922C242.409 29.4974 242.69 29.888 243.07 30.1641C243.451 30.4401 243.94 30.5781 244.539 30.5781C245.133 30.5781 245.62 30.4401 246 30.1641C246.385 29.888 246.669 29.4974 246.852 28.9922C247.034 28.487 247.125 27.8906 247.125 27.2031C247.125 26.5208 247.034 25.9323 246.852 25.4375C246.669 24.9375 246.388 24.5521 246.008 24.2812C245.628 24.0104 245.135 23.875 244.531 23.875C243.641 23.875 242.987 24.1693 242.57 24.7578C242.159 25.3464 241.953 26.1615 241.953 27.2031ZM257.68 31.4844L256.156 26.5C256.089 26.2865 256.023 26.0781 255.961 25.875C255.904 25.6667 255.849 25.4688 255.797 25.2812C255.75 25.0885 255.706 24.9115 255.664 24.75C255.628 24.5833 255.596 24.4401 255.57 24.3203H255.516C255.495 24.4401 255.466 24.5833 255.43 24.75C255.393 24.9115 255.349 25.0885 255.297 25.2812C255.25 25.474 255.198 25.6771 255.141 25.8906C255.083 26.099 255.018 26.3099 254.945 26.5234L253.352 31.4844H251.891L249.531 22.9219H250.875L252.109 27.6484C252.193 27.9609 252.271 28.2708 252.344 28.5781C252.422 28.8802 252.487 29.1667 252.539 29.4375C252.596 29.7031 252.638 29.9349 252.664 30.1328H252.727C252.758 30.0026 252.792 29.8464 252.828 29.6641C252.87 29.4818 252.914 29.2891 252.961 29.0859C253.013 28.8776 253.068 28.6719 253.125 28.4688C253.182 28.2604 253.24 28.0651 253.297 27.8828L254.875 22.9219H256.273L257.797 27.875C257.875 28.125 257.951 28.3854 258.023 28.6562C258.102 28.9271 258.172 29.1901 258.234 29.4453C258.297 29.6953 258.341 29.9193 258.367 30.1172H258.43C258.451 29.9401 258.49 29.7214 258.547 29.4609C258.604 29.2005 258.669 28.9141 258.742 28.6016C258.82 28.2891 258.901 27.9714 258.984 27.6484L260.234 22.9219H261.555L259.188 31.4844H257.68ZM268.656 29.1562C268.656 29.7031 268.518 30.1641 268.242 30.5391C267.971 30.9089 267.581 31.1875 267.07 31.375C266.565 31.5625 265.961 31.6562 265.258 31.6562C264.659 31.6562 264.141 31.6094 263.703 31.5156C263.266 31.4219 262.883 31.2891 262.555 31.1172V29.9219C262.904 30.0938 263.32 30.25 263.805 30.3906C264.289 30.5312 264.784 30.6016 265.289 30.6016C266.029 30.6016 266.565 30.4818 266.898 30.2422C267.232 30.0026 267.398 29.6771 267.398 29.2656C267.398 29.0312 267.331 28.8255 267.195 28.6484C267.065 28.4661 266.844 28.2917 266.531 28.125C266.219 27.9531 265.787 27.7656 265.234 27.5625C264.688 27.3542 264.214 27.1484 263.813 26.9453C263.417 26.737 263.109 26.4844 262.891 26.1875C262.677 25.8906 262.57 25.5052 262.57 25.0312C262.57 24.3073 262.862 23.7526 263.445 23.3672C264.034 22.9766 264.805 22.7812 265.758 22.7812C266.273 22.7812 266.755 22.8333 267.203 22.9375C267.656 23.0365 268.078 23.1719 268.469 23.3438L268.031 24.3828C267.677 24.2318 267.3 24.1042 266.898 24C266.497 23.8958 266.089 23.8438 265.672 23.8438C265.073 23.8438 264.612 23.9427 264.289 24.1406C263.971 24.3385 263.813 24.6094 263.813 24.9531C263.813 25.2188 263.885 25.4375 264.031 25.6094C264.182 25.7812 264.422 25.9427 264.75 26.0938C265.078 26.2448 265.51 26.4219 266.047 26.625C266.583 26.8229 267.047 27.0286 267.438 27.2422C267.828 27.4505 268.128 27.7057 268.336 28.0078C268.55 28.3047 268.656 28.6875 268.656 29.1562ZM274.039 22.7812C274.768 22.7812 275.393 22.9427 275.914 23.2656C276.435 23.5885 276.833 24.0417 277.109 24.625C277.385 25.2031 277.523 25.8802 277.523 26.6562V27.4609H271.609C271.625 28.4661 271.875 29.2318 272.359 29.7578C272.844 30.2839 273.526 30.5469 274.406 30.5469C274.948 30.5469 275.427 30.4974 275.844 30.3984C276.26 30.2995 276.693 30.1536 277.141 29.9609V31.1016C276.708 31.2943 276.279 31.4349 275.852 31.5234C275.43 31.612 274.93 31.6562 274.352 31.6562C273.529 31.6562 272.81 31.4896 272.195 31.1562C271.586 30.8177 271.112 30.3229 270.773 29.6719C270.435 29.0208 270.266 28.224 270.266 27.2812C270.266 26.3594 270.419 25.5625 270.727 24.8906C271.039 24.2135 271.477 23.6927 272.039 23.3281C272.607 22.9635 273.273 22.7812 274.039 22.7812ZM274.023 23.8438C273.331 23.8438 272.779 24.0703 272.367 24.5234C271.956 24.9766 271.711 25.6094 271.633 26.4219H276.164C276.159 25.9115 276.078 25.4635 275.922 25.0781C275.771 24.6875 275.539 24.3854 275.227 24.1719C274.914 23.9531 274.513 23.8438 274.023 23.8438Z" fill="#A8A8A8"/>
<path d="M303.5 17.5V32.5" stroke="#A8A8A8" stroke-width="2" stroke-linecap="round"/>
<path d="M311 25.1416L296 25.1416" stroke="#A8A8A8" stroke-width="2" stroke-linecap="round"/>
</svg>
